<svg width="640" height="640" xmlns="http://www.w3.org/2000/svg">
 <g>
  <title>grid</title>
  <rect fill="#000000" x="20" y="20" width="10" height="10" id="pt1"/>
  <rect fill="#000000" x="70" y="20" width="10" height="10" id="pt2"/>
  <rect fill="#000000" x="120" y="20" width="10" height="10" id="pt3"/>
  <rect fill="#000000" x="170" y="20" width="10" height="10" id="pt4"/>
  <rect fill="#000000" x="220" y="20" width="10" height="10" id="pt5"/>
  <rect fill="#000000" x="270" y="20" width="10" height="10" id="pt6"/>
  <rect fill="#000000" x="320" y="20" width="10" height="10" id="pt7"/>
  <rect fill="#000000" x="370" y="20" width="10" height="10" id="pt8"/>
  <rect fill="#000000" x="420" y="20" width="10" height="10" id="pt9"/>
  <rect fill="#000000" x="470" y="20" width="10" height="10" id="pt10"/>
  <rect fill="#000000" x="520" y="20" width="10" height="10" id="pt11"/>
  <rect fill="#000000" x="570" y="20" width="10" height="10" id="pt12"/>
  <rect fill="#000000" x="620" y="20" width="10" height="10" id="pt13"/>
  <rect fill="#000000" x="20" y="70" width="10" height="10" id="pt14"/>
  <rect fill="#000000" x="70" y="70" width="10" height="10" id="pt15"/>
  <rect fill="#000000" x="120" y="70" width="10" height="10" id="pt16"/>
  <rect fill="#000000" x="170" y="70" width="10" height="10" id="pt17"/>
  <rect fill="#000000" x="220" y="70" width="10" height="10" id="pt18"/>
  <rect fill="#000000" x="270" y="70" width="10" height="10" id="pt19"/>
  <rect fill="#000000" x="320" y="70" width="10" height="10" id="pt20"/>
  <rect fill="#000000" x="370" y="70" width="10" height="10" id="pt21"/>
  <rect fill="#000000" x="420" y="70" width="10" height="10" id="pt22"/>
  <rect fill="#000000" x="470" y="70" width="10" height="10" id="pt23"/>
  <rect fill="#000000" x="520" y="70" width="10" height="10" id="pt24"/>
  <rect fill="#000000" x="570" y="70" width="10" height="10" id="pt25"/>
  <rect fill="#000000" x="620" y="70" width="10" height="10" id="pt26"/>
  <rect fill="#000000" x="20" y="120" width="10" height="10" id="pt27"/>
  <rect fill="#000000" x="70" y="120" width="10" height="10" id="pt28"/>
  <rect fill="#000000" x="120" y="120" width="10" height="10" id="pt29"/>
  <rect fill="#000000" x="170" y="120" width="10" height="10" id="pt30"/>
  <rect fill="#000000" x="220" y="120" width="10" height="10" id="pt31"/>
  <rect fill="#000000" x="270" y="120" width="10" height="10" id="pt32"/>
  <rect fill="#000000" x="320" y="120" width="10" height="10" id="pt33"/>
  <rect fill="#000000" x="370" y="120" width="10" height="10" id="pt34"/>
  <rect fill="#000000" x="420" y="120" width="10" height="10" id="pt35"/>
  <rect fill="#000000" x="470" y="120" width="10" height="10" id="pt36"/>
  <rect fill="#000000" x="520" y="120" width="10" height="10" id="pt37"/>
  <rect fill="#000000" x="570" y="120" width="10" height="10" id="pt38"/>
  <rect fill="#000000" x="620" y="120" width="10" height="10" id="pt39"/>
  <rect fill="#000000" x="20" y="170" width="10" height="10" id="pt40"/>
  <rect fill="#000000" x="70" y="170" width="10" height="10" id="pt41"/>
  <rect fill="#000000" x="120" y="170" width="10" height="10" id="pt42"/>
  <rect fill="#000000" x="170" y="170" width="10" height="10" id="pt43"/>
  <rect fill="#000000" x="220" y="170" width="10" height="10" id="pt44"/>
  <rect fill="#000000" x="270" y="170" width="10" height="10" id="pt45"/>
  <rect fill="#000000" x="320" y="170" width="10" height="10" id="pt46"/>
  <rect fill="#000000" x="370" y="170" width="10" height="10" id="pt47"/>
  <rect fill="#000000" x="420" y="170" width="10" height="10" id="pt48"/>
  <rect fill="#000000" x="470" y="170" width="10" height="10" id="pt49"/>
  <rect fill="#000000" x="520" y="170" width="10" height="10" id="pt50"/>
  <rect fill="#000000" x="570" y="170" width="10" height="10" id="pt51"/>
  <rect fill="#000000" x="620" y="170" width="10" height="10" id="pt52"/>
  <rect fill="#000000" x="20" y="220" width="10" height="10" id="pt53"/>
  <rect fill="#000000" x="70" y="220" width="10" height="10" id="pt54"/>
  <rect fill="#000000" x="120" y="220" width="10" height="10" id="pt55"/>
  <rect fill="#000000" x="170" y="220" width="10" height="10" id="pt56"/>
  <rect fill="#000000" x="220" y="220" width="10" height="10" id="pt57"/>
  <rect fill="#000000" x="270" y="220" width="10" height="10" id="pt58"/>
  <rect fill="#000000" x="320" y="220" width="10" height="10" id="pt59"/>
  <rect fill="#000000" x="370" y="220" width="10" height="10" id="pt60"/>
  <rect fill="#000000" x="420" y="220" width="10" height="10" id="pt61"/>
  <rect fill="#000000" x="470" y="220" width="10" height="10" id="pt62"/>
  <rect fill="#000000" x="520" y="220" width="10" height="10" id="pt63"/>
  <rect fill="#000000" x="570" y="220" width="10" height="10" id="pt64"/>
  <rect fill="#000000" x="620" y="220" width="10" height="10" id="pt65"/>
  <rect fill="#000000" x="20" y="270" width="10" height="10" id="pt66"/>
  <rect fill="#000000" x="70" y="270" width="10" height="10" id="pt67"/>
  <rect fill="#000000" x="120" y="270" width="10" height="10" id="pt68"/>
  <rect fill="#000000" x="170" y="270" width="10" height="10" id="pt69"/>
  <rect fill="#000000" x="220" y="270" width="10" height="10" id="pt70"/>
  <rect fill="#000000" x="270" y="270" width="10" height="10" id="pt71"/>
  <rect fill="#000000" x="320" y="270" width="10" height="10" id="pt72"/>
  <rect fill="#000000" x="370" y="270" width="10" height="10" id="pt73"/>
  <rect fill="#000000" x="420" y="270" width="10" height="10" id="pt74"/>
  <rect fill="#000000" x="470" y="270" width="10" height="10" id="pt75"/>
  <rect fill="#000000" x="520" y="270" width="10" height="10" id="pt76"/>
  <rect fill="#000000" x="570" y="270" width="10" height="10" id="pt77"/>
  <rect fill="#000000" x="620" y="270" width="10" height="10" id="pt78"/>
  <rect fill="#000000" x="20" y="320" width="10" height="10" id="pt79"/>
  <rect fill="#000000" x="70" y="320" width="10" height="10" id="pt80"/>
  <rect fill="#000000" x="120" y="320" width="10" height="10" id="pt81"/>
  <rect fill="#000000" x="170" y="320" width="10" height="10" id="pt82"/>
  <rect fill="#000000" x="220" y="320" width="10" height="10" id="pt83"/>
  <rect fill="#000000" x="270" y="320" width="10" height="10" id="pt84"/>
  <rect fill="#000000" x="320" y="320" width="10" height="10" id="pt85"/>
  <rect fill="#000000" x="370" y="320" width="10" height="10" id="pt86"/>
  <rect fill="#000000" x="420" y="320" width="10" height="10" id="pt87"/>
  <rect fill="#000000" x="470" y="320" width="10" height="10" id="pt88"/>
  <rect fill="#000000" x="520" y="320" width="10" height="10" id="pt89"/>
  <rect fill="#000000" x="570" y="320" width="10" height="10" id="pt90"/>
  <rect fill="#000000" x="620" y="320" width="10" height="10" id="pt91"/>
  <rect fill="#000000" x="20" y="370" width="10" height="10" id="pt92"/>
  <rect fill="#000000" x="70" y="370" width="10" height="10" id="pt93"/>
  <rect fill="#000000" x="120" y="370" width="10" height="10" id="pt94"/>
  <rect fill="#000000" x="170" y="370" width="10" height="10" id="pt95"/>
  <rect fill="#000000" x="220" y="370" width="10" height="10" id="pt96"/>
  <rect fill="#000000" x="270" y="370" width="10" height="10" id="pt97"/>
  <rect fill="#000000" x="320" y="370" width="10" height="10" id="pt98"/>
  <rect fill="#000000" x="370" y="370" width="10" height="10" id="pt99"/>
  <rect fill="#000000" x="420" y="370" width="10" height="10" id="pt100"/>
  <rect fill="#000000" x="470" y="370" width="10" height="10" id="pt101"/>
  <rect fill="#000000" x="520" y="370" width="10" height="10" id="pt102"/>
  <rect fill="#000000" x="570" y="370" width="10" height="10" id="pt103"/>
  <rect fill="#000000" x="620" y="370" width="10" height="10" id="pt104"/>
  <rect fill="#000000" x="20" y="420" width="10" height="10" id="pt105"/>
  <rect fill="#000000" x="70" y="420" width="10" height="10" id="pt106"/>
  <rect fill="#000000" x="120" y="420" width="10" height="10" id="pt107"/>
  <rect fill="#000000" x="170" y="420" width="10" height="10" id="pt108"/>
  <rect fill="#000000" x="220" y="420" width="10" height="10" id="pt109"/>
  <rect fill="#000000" x="270" y="420" width="10" height="10" id="pt110"/>
  <rect fill="#000000" x="320" y="420" width="10" height="10" id="pt111"/>
  <rect fill="#000000" x="370" y="420" width="10" height="10" id="pt112"/>
  <rect fill="#000000" x="420" y="420" width="10" height="10" id="pt113"/>
  <rect fill="#000000" x="470" y="420" width="10" height="10" id="pt114"/>
  <rect fill="#000000" x="520" y="420" width="10" height="10" id="pt115"/>
  <rect fill="#000000" x="570" y="420" width="10" height="10" id="pt116"/>
  <rect fill="#000000" x="620" y="420" width="10" height="10" id="pt117"/>
  <rect fill="#000000" x="20" y="470" width="10" height="10" id="pt118"/>
  <rect fill="#000000" x="70" y="470" width="10" height="10" id="pt119"/>
  <rect fill="#000000" x="120" y="470" width="10" height="10" id="pt120"/>
  <rect fill="#000000" x="170" y="470" width="10" height="10" id="pt121"/>
  <rect fill="#000000" x="220" y="470" width="10" height="10" id="pt122"/>
  <rect fill="#000000" x="270" y="470" width="10" height="10" id="pt123"/>
  <rect fill="#000000" x="320" y="470" width="10" height="10" id="pt124"/>
  <rect fill="#000000" x="370" y="470" width="10" height="10" id="pt125"/>
  <rect fill="#000000" x="420" y="470" width="10" height="10" id="pt126"/>
  <rect fill="#000000" x="470" y="470" width="10" height="10" id="pt127"/>
  <rect fill="#000000" x="520" y="470" width="10" height="10" id="pt128"/>
  <rect fill="#000000" x="570" y="470" width="10" height="10" id="pt129"/>
  <rect fill="#000000" x="620" y="470" width="10" height="10" id="pt130"/>
  <rect fill="#000000" x="20" y="520" width="10" height="10" id="pt131"/>
  <rect fill="#000000" x="70" y="520" width="10" height="10" id="pt132"/>
  <rect fill="#000000" x="120" y="520" width="10" height="10" id="pt133"/>
  <rect fill="#000000" x="170" y="520" width="10" height="10" id="pt134"/>
  <rect fill="#000000" x="220" y="520" width="10" height="10" id="pt135"/>
  <rect fill="#000000" x="270" y="520" width="10" height="10" id="pt136"/>
  <rect fill="#000000" x="320" y="520" width="10" height="10" id="pt137"/>
  <rect fill="#000000" x="370" y="520" width="10" height="10" id="pt138"/>
  <rect fill="#000000" x="420" y="520" width="10" height="10" id="pt139"/>
  <rect fill="#000000" x="470" y="520" width="10" height="10" id="pt140"/>
  <rect fill="#000000" x="520" y="520" width="10" height="10" id="pt141"/>
  <rect fill="#000000" x="570" y="520" width="10" height="10" id="pt142"/>
  <rect fill="#000000" x="620" y="520" width="10" height="10" id="pt143"/>
  <rect fill="#000000" x="20" y="570" width="10" height="10" id="pt144"/>
  <rect fill="#000000" x="70" y="570" width="10" height="10" id="pt145"/>
  <rect fill="#000000" x="120" y="570" width="10" height="10" id="pt146"/>
  <rect fill="#000000" x="170" y="570" width="10" height="10" id="pt147"/>
  <rect fill="#000000" x="220" y="570" width="10" height="10" id="pt148"/>
  <rect fill="#000000" x="270" y="570" width="10" height="10" id="pt149"/>
  <rect fill="#000000" x="320" y="570" width="10" height="10" id="pt150"/>
  <rect fill="#000000" x="370" y="570" width="10" height="10" id="pt151"/>
  <rect fill="#000000" x="420" y="570" width="10" height="10" id="pt152"/>
  <rect fill="#000000" x="470" y="570" width="10" height="10" id="pt153"/>
  <rect fill="#000000" x="520" y="570" width="10" height="10" id="pt154"/>
  <rect fill="#000000" x="570" y="570" width="10" height="10" id="pt155"/>
  <rect fill="#000000" x="620" y="570" width="10" height="10" id="pt156"/>
  <rect fill="#000000" x="20" y="620" width="10" height="10" id="pt157"/>
  <rect fill="#000000" x="70" y="620" width="10" height="10" id="pt158"/>
  <rect fill="#000000" x="120" y="620" width="10" height="10" id="pt159"/>
  <rect fill="#000000" x="170" y="620" width="10" height="10" id="pt160"/>
  <rect fill="#000000" x="220" y="620" width="10" height="10" id="pt161"/>
  <rect fill="#000000" x="270" y="620" width="10" height="10" id="pt162"/>
  <rect fill="#000000" x="320" y="620" width="10" height="10" id="pt163"/>
  <rect fill="#000000" x="370" y="620" width="10" height="10" id="pt164"/>
  <rect fill="#000000" x="420" y="620" width="10" height="10" id="pt165"/>
  <rect fill="#000000" x="470" y="620" width="10" height="10" id="pt166"/>
  <rect fill="#000000" x="520" y="620" width="10" height="10" id="pt167"/>
  <rect fill="#000000" x="570" y="620" width="10" height="10" id="pt168"/>
  <rect fill="#000000" x="620" y="620" width="10" height="10" id="pt169"/>
 </g>
</svg>